<svg width="32" height="32" viewBox="0 0 32 32" fill="none" xmlns="http://www.w3.org/2000/svg">
<path d="M31.4162 2.43795L29.5642 0.585978C29.3785 0.400203 29.158 0.252836 28.9153 0.152293C28.6726 0.0517493 28.4124 0 28.1497 0C27.8871 0 27.6269 0.0517493 27.3842 0.152293C27.1415 0.252836 26.921 0.400203 26.7353 0.585978L23.8426 3.48175C23.6002 3.72357 23.4176 4.01873 23.3095 4.34367L22.5495 6.62567L17.783 11.3922C17.0229 10.8446 16.1891 10.4084 15.2766 10.1959C13.1858 9.70958 11.0889 10.1409 9.65879 11.5709C9.0754 12.1567 8.64151 12.8742 8.39372 13.6629C8.0187 14.823 6.94302 15.7061 5.75921 15.8168C4.27788 15.9587 2.90093 16.5324 1.84588 17.5944C-1.00677 20.4389 -0.493617 25.5642 2.97406 29.03C6.44174 32.4958 11.5633 33.002 14.4109 30.1594C15.4735 29.1043 16.046 27.728 16.1891 26.2398C16.2991 25.0616 17.1823 23.9816 18.3411 23.6059C19.13 23.3577 19.8476 22.9236 20.4337 22.3402C21.8632 20.9102 22.2926 18.8176 21.8088 16.7306C21.5969 15.8155 21.1606 14.9805 20.6112 14.2179L25.3765 9.45269L27.6566 8.69265C27.9815 8.58456 28.2767 8.40198 28.5185 8.1595L31.4143 5.26435C31.789 4.88959 31.9996 4.38146 32 3.85154C32.0003 3.32161 31.7903 2.8132 31.4162 2.43795ZM13.0008 22.0015C12.4075 22.0015 11.8274 21.8255 11.334 21.4958C10.8407 21.1662 10.4561 20.6976 10.2291 20.1494C10.002 19.6012 9.94256 18.998 10.0583 18.416C10.1741 17.834 10.4598 17.2995 10.8794 16.8799C11.299 16.4603 11.8336 16.1746 12.4155 16.0588C12.9975 15.943 13.6007 16.0025 14.1489 16.2295C14.6972 16.4566 15.1657 16.8411 15.4954 17.3345C15.825 17.8279 16.001 18.4079 16.001 19.0013C16.001 19.797 15.6849 20.5601 15.1223 21.1227C14.5596 21.6854 13.7965 22.0015 13.0008 22.0015Z" fill="white"/>
</svg>
