<svg width="21" height="33" viewBox="0 0 21 33" fill="none" xmlns="http://www.w3.org/2000/svg">
<path d="M19.8 12.925V14.3H19.25V12.375H18.15V14.3H17.6V14.025H17.05V13.475H17.6V12.375H16.9147V5.9125C16.9147 2.43155 14.256 0 10.45 0C6.644 0 3.9864 2.43155 3.9864 5.9125V12.375H3.3V13.475H3.85V14.025H3.3V14.3H2.75V12.375H1.65V14.3H1.1V12.925H0V16.225H1.1V14.85H1.65V20.3434C1.65 26.1586 4.9038 28.9746 8.8 29.5746V30.25H9.35V31.3902C5.63145 31.6327 2.75 33 2.75 33H18.15C18.15 33 15.2691 31.6327 11.55 31.3902V30.25H12.1V29.5746C15.9973 28.9746 19.25 26.1586 19.25 20.3434V14.85H19.8V16.225H20.9V12.925H19.8ZM4.8114 5.9125C4.8114 2.8699 7.07685 0.825 10.45 0.825C13.8232 0.825 16.0897 2.8699 16.0897 5.9125V12.375H4.8114V5.9125ZM18.15 20.4479C18.15 25.4326 15.4171 27.8944 12.1 28.4862V27.5H8.8V28.4862C5.48295 27.8944 2.75 25.432 2.75 20.4479V14.85H3.3V15.125H3.85V15.675H3.3V16.775H4.3989V19.8C4.3989 23.2215 7.0169 25.85 10.45 25.85C13.8842 25.85 16.5022 23.2215 16.5022 19.8V16.775H17.6V15.675H17.05V15.125H17.6V14.85H18.15V20.4479Z" fill="white"/>
<path d="M6.02636 10.7255C5.62761 10.7563 5.30421 11.0473 5.30421 11.3696C5.30201 11.6919 5.63421 11.9559 6.03901 11.9586C6.44491 11.9614 6.76941 11.6737 6.76391 11.3184C6.75786 10.9637 6.42731 10.6947 6.02636 10.7255Z" fill="white"/>
<path d="M8.96671 10.5899C8.55641 10.6009 8.22861 10.9138 8.23521 11.2851C8.24071 11.6558 8.57456 11.9577 8.98046 11.9594C9.38525 11.9599 9.71306 11.6503 9.71196 11.268C9.70976 10.8852 9.37371 10.5794 8.96671 10.5899Z" fill="white"/>
<path d="M11.9345 10.5899C11.5253 10.5794 11.1909 10.8852 11.1892 11.2675C11.187 11.6503 11.517 11.9594 11.9207 11.9588C12.3255 11.9572 12.661 11.6552 12.6654 11.2845C12.6715 10.9144 12.3448 10.6003 11.9345 10.5899Z" fill="white"/>
<path d="M14.8747 10.7255C14.4732 10.6947 14.1421 10.9637 14.1355 11.3184C14.1311 11.6737 14.4556 11.9614 14.8615 11.9586C15.2674 11.9559 15.5963 11.6919 15.5963 11.3696C15.5947 11.0473 15.2735 10.7563 14.8747 10.7255Z" fill="white"/>
<path d="M6.006 8.67126C6.39815 8.59811 6.71935 8.26261 6.71275 7.90621C6.70835 7.55091 6.38 7.33201 5.9928 7.43706C5.60725 7.54211 5.3042 7.90676 5.3042 8.22851C5.30365 8.55136 5.61385 8.74221 6.006 8.67126Z" fill="white"/>
<path d="M8.92762 6.93935C8.50742 6.974 8.17797 7.31995 8.18292 7.69065C8.18842 8.06245 8.52557 8.33195 8.94137 8.30885C9.35607 8.28355 9.69212 7.9651 9.68992 7.5834C9.69047 7.20225 9.34452 6.90415 8.92762 6.93935Z" fill="white"/>
<path d="M11.9581 8.30885C12.3739 8.33195 12.7121 8.06245 12.7165 7.69065C12.722 7.31995 12.392 6.97345 11.9729 6.93935C11.556 6.90415 11.2101 7.20225 11.209 7.5834C11.2084 7.9651 11.5445 8.2841 11.9581 8.30885Z" fill="white"/>
<path d="M14.9078 7.43706C14.52 7.33201 14.1933 7.55091 14.1867 7.90621C14.1812 8.26206 14.5024 8.59811 14.8946 8.67126C15.2867 8.74276 15.5969 8.55136 15.5958 8.22905C15.5953 7.90786 15.2939 7.54266 14.9078 7.43706Z" fill="white"/>
<path d="M7.46024 8.883C7.05544 8.92865 6.73314 9.2614 6.73809 9.6123C6.74304 9.9632 7.07524 10.2234 7.48169 10.2008C7.88649 10.1766 8.21429 9.8609 8.20879 9.48745C8.20329 9.114 7.86559 8.8379 7.46024 8.883Z" fill="white"/>
<path d="M10.45 8.72461C10.0342 8.72461 9.69814 9.04471 9.70144 9.42531C9.70474 9.80646 10.0386 10.1101 10.45 10.1101C10.8614 10.1101 11.1963 9.80646 11.1996 9.42531C11.2018 9.04471 10.8669 8.72461 10.45 8.72461Z" fill="white"/>
<path d="M13.4409 8.883C13.035 8.8379 12.6973 9.11455 12.6912 9.488C12.6868 9.86145 13.0135 10.1771 13.4194 10.2013C13.8242 10.2239 14.1575 9.9632 14.163 9.61285C14.1669 9.26195 13.8446 8.92865 13.4409 8.883Z" fill="white"/>
<path d="M7.40358 5.36903C6.99768 5.46473 6.68254 5.84918 6.68694 6.20063C6.69244 6.55153 7.01913 6.75998 7.42503 6.68738C7.83093 6.61368 8.16313 6.26828 8.15763 5.89483C8.15323 5.52083 7.80838 5.27333 7.40358 5.36903Z" fill="white"/>
<path d="M10.4499 6.41505C10.874 6.41395 11.2172 6.12245 11.2199 5.74075C11.2232 5.36015 10.8795 5.02905 10.4499 5.02905C10.0215 5.02905 9.67884 5.36015 9.68104 5.74075C9.68269 6.12245 10.0275 6.41395 10.4499 6.41505Z" fill="white"/>
<path d="M13.4964 5.36903C13.0927 5.27333 12.7479 5.52083 12.7424 5.89428C12.7369 6.26828 13.0713 6.61423 13.4761 6.68683C13.882 6.75998 14.2076 6.55098 14.2131 6.20008C14.2186 5.84918 13.9034 5.46473 13.4964 5.36903Z" fill="white"/>
<path d="M5.9724 5.38283C6.3508 5.23433 6.6665 4.84988 6.661 4.49403C6.6566 4.13928 6.331 3.96933 5.95975 4.15028C5.58795 4.33013 5.3058 4.76738 5.3047 5.08858C5.3025 5.41143 5.59455 5.52913 5.9724 5.38283Z" fill="white"/>
<path d="M8.90343 4.65859C9.32583 4.60854 9.67343 4.28184 9.67123 3.90014C9.66903 3.51844 9.31483 3.22859 8.88913 3.28964C8.46068 3.35014 8.12628 3.72799 8.13178 4.09759C8.13838 4.46884 8.47883 4.70699 8.90343 4.65859Z" fill="white"/>
<path d="M11.9976 4.65841C12.42 4.70681 12.7627 4.46866 12.7676 4.09686C12.7731 3.72726 12.4376 3.34996 12.0114 3.28891C11.5851 3.22786 11.2315 3.51771 11.2304 3.89941C11.2276 4.28166 11.5747 4.60836 11.9976 4.65841Z" fill="white"/>
<path d="M14.9287 5.38282C15.306 5.52912 15.5981 5.41142 15.597 5.08857C15.5959 4.76737 15.3132 4.33012 14.9419 4.15027C14.569 3.96877 14.2445 4.13927 14.2396 4.49402C14.2335 4.84987 14.5503 5.23487 14.9287 5.38282Z" fill="white"/>
<path d="M7.36778 3.17348C7.77368 3.04918 8.11138 2.67463 8.10588 2.30118C8.10148 1.92828 7.75223 1.70938 7.34633 1.85458C6.94043 1.99978 6.63078 2.43758 6.63518 2.78793C6.64068 3.13938 6.96188 3.29558 7.36778 3.17348Z" fill="white"/>
<path d="M10.4501 2.72035C10.8851 2.71925 11.2388 2.43875 11.241 2.0576C11.2437 1.67645 10.8906 1.33325 10.4501 1.33325C10.0095 1.33325 9.65754 1.67645 9.66029 2.0576C9.66249 2.43875 10.015 2.71925 10.4501 2.72035Z" fill="white"/>
<path d="M13.5322 3.17339C13.9392 3.29604 14.2593 3.13929 14.2648 2.78839C14.2703 2.43749 13.9596 1.99969 13.5537 1.85504C13.1478 1.70929 12.7996 1.92874 12.7941 2.30164C12.7886 2.67399 13.128 3.04909 13.5322 3.17339Z" fill="white"/>
</svg>
