<svg width="32" height="22" viewBox="0 0 32 22" fill="none" xmlns="http://www.w3.org/2000/svg">
<path d="M4.65278 9.30555C6.36364 9.30555 7.75463 7.91457 7.75463 6.2037C7.75463 4.49284 6.36364 3.10185 4.65278 3.10185C2.94191 3.10185 1.55093 4.49284 1.55093 6.2037C1.55093 7.91457 2.94191 9.30555 4.65278 9.30555ZM26.3657 9.30555C28.0766 9.30555 29.4676 7.91457 29.4676 6.2037C29.4676 4.49284 28.0766 3.10185 26.3657 3.10185C24.6549 3.10185 23.2639 4.49284 23.2639 6.2037C23.2639 7.91457 24.6549 9.30555 26.3657 9.30555ZM27.9167 10.8565H24.8148C23.9618 10.8565 23.1912 11.2006 22.629 11.758C24.5822 12.8291 25.9683 14.7629 26.2688 17.0602H29.4676C30.3254 17.0602 31.0185 16.3671 31.0185 15.5093V13.9583C31.0185 12.2475 29.6275 10.8565 27.9167 10.8565ZM15.5093 10.8565C18.5093 10.8565 20.9375 8.42831 20.9375 5.42824C20.9375 2.42817 18.5093 0 15.5093 0C12.5092 0 10.081 2.42817 10.081 5.42824C10.081 8.42831 12.5092 10.8565 15.5093 10.8565ZM19.2315 12.4074H18.8292C17.8211 12.8921 16.7015 13.1829 15.5093 13.1829C14.317 13.1829 13.2023 12.8921 12.1893 12.4074H11.787C8.70457 12.4074 6.2037 14.9083 6.2037 17.9907V19.3866C6.2037 20.6709 7.24573 21.713 8.53009 21.713H22.4884C23.7728 21.713 24.8148 20.6709 24.8148 19.3866V17.9907C24.8148 14.9083 22.3139 12.4074 19.2315 12.4074ZM8.38954 11.758C7.82733 11.2006 7.05671 10.8565 6.2037 10.8565H3.10185C1.39099 10.8565 0 12.2475 0 13.9583V15.5093C0 16.3671 0.69307 17.0602 1.55093 17.0602H4.74486C5.0502 14.7629 6.43634 12.8291 8.38954 11.758Z" fill="white"/>
</svg>
